<svg width="50" height="50" viewBox="0 0 50 50" fill="none" xmlns="http://www.w3.org/2000/svg">
<path d="M16.2501 4.16669H33.7501C40.4167 4.16669 45.8334 9.58335 45.8334 16.25V33.75C45.8334 36.9547 44.5604 40.0282 42.2943 42.2942C40.0282 44.5603 36.9548 45.8334 33.7501 45.8334H16.2501C9.58341 45.8334 4.16675 40.4167 4.16675 33.75V16.25C4.16675 13.0453 5.43981 9.97188 7.70587 7.70581C9.97194 5.43975 13.0454 4.16669 16.2501 4.16669ZM15.8334 8.33335C13.8443 8.33335 11.9366 9.12353 10.5301 10.5301C9.12359 11.9366 8.33341 13.8442 8.33341 15.8334V34.1667C8.33341 38.3125 11.6876 41.6667 15.8334 41.6667H34.1667C36.1559 41.6667 38.0635 40.8765 39.47 39.47C40.8766 38.0635 41.6667 36.1558 41.6667 34.1667V15.8334C41.6667 11.6875 38.3126 8.33335 34.1667 8.33335H15.8334ZM35.9376 11.4584C36.6282 11.4584 37.2906 11.7327 37.779 12.2211C38.2674 12.7095 38.5417 13.3719 38.5417 14.0625C38.5417 14.7532 38.2674 15.4156 37.779 15.9039C37.2906 16.3923 36.6282 16.6667 35.9376 16.6667C35.2469 16.6667 34.5845 16.3923 34.0962 15.9039C33.6078 15.4156 33.3334 14.7532 33.3334 14.0625C33.3334 13.3719 33.6078 12.7095 34.0962 12.2211C34.5845 11.7327 35.2469 11.4584 35.9376 11.4584ZM25.0001 14.5834C27.7628 14.5834 30.4123 15.6808 32.3658 17.6343C34.3193 19.5878 35.4167 22.2373 35.4167 25C35.4167 27.7627 34.3193 30.4122 32.3658 32.3657C30.4123 34.3192 27.7628 35.4167 25.0001 35.4167C22.2374 35.4167 19.5879 34.3192 17.6344 32.3657C15.6809 30.4122 14.5834 27.7627 14.5834 25C14.5834 22.2373 15.6809 19.5878 17.6344 17.6343C19.5879 15.6808 22.2374 14.5834 25.0001 14.5834ZM25.0001 18.75C23.3425 18.75 21.7528 19.4085 20.5807 20.5806C19.4086 21.7527 18.7501 23.3424 18.7501 25C18.7501 26.6576 19.4086 28.2473 20.5807 29.4194C21.7528 30.5915 23.3425 31.25 25.0001 31.25C26.6577 31.25 28.2474 30.5915 29.4195 29.4194C30.5916 28.2473 31.2501 26.6576 31.2501 25C31.2501 23.3424 30.5916 21.7527 29.4195 20.5806C28.2474 19.4085 26.6577 18.75 25.0001 18.75Z" fill="#355314"/>
</svg>
